# xmcd
#
# Track frame offsets: 
#        150
#        17532
#        35022
#        55590
#        74440
#        98367
#        116857
#        136002
#        154547
#        171800
#
# Disc length: 2524 seconds
#
# Revision: 6
# Processed by: cddbd v1.5.2PL0 Copyright (c) Steve Scherf et al.
# Submitted via: ExactAudioCopy v0.95b4
#
DISCID=7509da0a
DTITLE=Phobe Snow - Something Real
DYEAR=1989
DGENRE=Jazz
TTITLE0=Something Real
TTITLE1=Mr. Wondering
TTITLE2=Touch Your Soul
TTITLE3=We Might Never Feel This Way Again
TTITLE4=I'm Your Girl
TTITLE5=If We Can Just Get Through The Night
TTITLE6=Stay Away
TTITLE7=Soothin'
TTITLE8=Best Of My Love
TTITLE9=Cardiac Arrest
EXTD=PHOEBE SNOW - SOMETHING REAL\n\nElektra/Asylum\n960 852-2\nADD Re
EXTD=cording
EXTT0=
EXTT1=
EXTT2=
EXTT3=
EXTT4=
EXTT5=
EXTT6=
EXTT7=
EXTT8=
EXTT9=
PLAYORDER=
